<svg xmlns="http://www.w3.org/2000/svg" width="120" height="46" viewBox="0 0 120 46">
  <g id="Logo_MISA_VN" data-name="Logo MISA_VN" transform="translate(7151 -5761)">
    <rect id="Rectangle_13626" data-name="Rectangle 13626" width="120" height="46" transform="translate(-7151 5761)" fill="none"/>
    <g id="Group_26639" data-name="Group 26639" transform="translate(-7699.109 5622.131)">
      <g id="Group_26638" data-name="Group 26638">
        <path id="Path_30276" data-name="Path 30276" d="M635.587,138.989c.611-1.16-16.267,6.386-21.865,10.611-1.978,1.493-1.9,3.278.442,4.674L621.6,158.7c3.309,1.614,2.146,2.995,1.511,3.71-2.616,2.945-12.979,9.324-16.562,11.408a.12.12,0,0,0-.041.1c-.03,1.315,27.424-7.259,28.854-12.864.647-2.541-8.206-5.964-10.735-7.656-1.476-.987-1.262-2.648.057-3.919Z" fill="#e82127" fill-rule="evenodd"/>
        <path id="Path_30277" data-name="Path 30277" d="M663.471,145.53h0a3.7,3.7,0,0,0-5.249,0h0a3.742,3.742,0,0,0,0,5.276h0a3.7,3.7,0,0,0,5.249,0h0a3.745,3.745,0,0,0,0-5.276Zm-.422,4.668-.641-1.006a3.175,3.175,0,0,0-.5-.612,1.56,1.56,0,0,0-.366-.23,1.6,1.6,0,0,0,.975-.427,1.153,1.153,0,0,0,.314-.825,1.314,1.314,0,0,0-.19-.694,1.028,1.028,0,0,0-.508-.437,2.714,2.714,0,0,0-.931-.124h-2.029v4.6h.6V148.4h.7a2,2,0,0,1,.339.022.917.917,0,0,1,.275.123,1.339,1.339,0,0,1,.308.308c.114.145.26.357.438.633l.6.957h.357a2.982,2.982,0,0,1-4.071-.147,3.021,3.021,0,0,1,0-4.255,2.985,2.985,0,0,1,4.233,0,3.015,3.015,0,0,1,.088,4.157Zm-1.97-2.324h-1.3v-1.522h1.449a1.108,1.108,0,0,1,.745.209.691.691,0,0,1,.234.537.75.75,0,0,1-.12.413.691.691,0,0,1-.357.276A1.922,1.922,0,0,1,661.079,147.874Z" fill="#221f1f" fill-rule="evenodd"/>
        <rect id="Rectangle_13628" data-name="Rectangle 13628" width="8.321" height="25.331" transform="translate(597.199 144.637)" fill="#221f1f"/>
        <path id="Path_30278" data-name="Path 30278" d="M649.853,159.771l5.786,10.208h8.842l-14.628-25.464-14.628,25.464h8.842Z" fill="#221f1f" fill-rule="evenodd"/>
        <path id="Path_30279" data-name="Path 30279" d="M566.082,159.807l6.895,12.287,6.884-12.287,5.8,10.222h8.867l-14.664-25.514-6.888,12-6.891-12-14.675,25.546h8.863Z" fill="#221f1f" fill-rule="evenodd"/>
        <rect id="Rectangle_13629" data-name="Rectangle 13629" width="54.088" height="1.135" transform="translate(551.432 172.921)" fill="#221f1f"/>
        <rect id="Rectangle_13630" data-name="Rectangle 13630" width="43.142" height="1.135" transform="translate(621.3 172.921)" fill="#221f1f"/>
      </g>
      <path id="Path_30280" data-name="Path 30280" d="M551.682,178.469h1.839v4.753h1.25v-4.753h1.854v-1h-4.944Z" fill="#221f1f" fill-rule="evenodd"/>
      <rect id="Rectangle_13631" data-name="Rectangle 13631" width="1.262" height="5.769" transform="translate(557.217 177.453)" fill="#221f1f"/>
      <path id="Path_30281" data-name="Path 30281" d="M563.129,181.609l-2.342-4.156h-1.53v5.769h1.235l-.047-4.357,2.461,4.357h1.387v-5.769h-1.21Z" fill="#221f1f" fill-rule="evenodd"/>
      <path id="Path_30282" data-name="Path 30282" d="M567.584,178.29a3.452,3.452,0,0,0-.573,2.157,2.9,2.9,0,0,0,.654,2.044,2.646,2.646,0,0,0,2.03.731h2.029v-1h-1.982a2.232,2.232,0,0,1-.728-.089.866.866,0,0,1-.5-.467,2.739,2.739,0,0,1-.183-1.132,2.768,2.768,0,0,1,.389-1.671,1.218,1.218,0,0,1,1.021-.422h1.982v-.986h-2A2.562,2.562,0,0,0,567.584,178.29Z" fill="#221f1f" fill-rule="evenodd"/>
      <path id="Path_30283" data-name="Path 30283" d="M574.25,177.453l-2.411,5.769h1.278l.494-1.38h2.5l.526,1.38h1.34l-2.45-5.769Zm-.249,3.37.849-2.207.868,2.207Z" fill="#221f1f" fill-rule="evenodd"/>
      <path id="Path_30284" data-name="Path 30284" d="M579.649,179.668l-1.422-2.215h-1.34l2.166,3.234v2.535h1.22v-2.535l2.2-3.234h-1.391Z" fill="#221f1f" fill-rule="evenodd"/>
      <rect id="Rectangle_13632" data-name="Rectangle 13632" width="2.685" height="1.006" transform="translate(582.983 180.557)" fill="#221f1f"/>
      <rect id="Rectangle_13633" data-name="Rectangle 13633" width="1.262" height="5.769" transform="translate(592.664 177.453)" fill="#221f1f"/>
      <path id="Path_30285" data-name="Path 30285" d="M595.324,178.29a3.458,3.458,0,0,0-.573,2.157,2.9,2.9,0,0,0,.655,2.044,2.644,2.644,0,0,0,2.03.731h2.028v-1h-1.981a1.41,1.41,0,0,1-1.025-.316,1.5,1.5,0,0,1-.332-1.1h3.338v-1h-3.338a1.335,1.335,0,0,1,.353-1.006,1.378,1.378,0,0,1,1-.343h1.981v-1h-2A2.562,2.562,0,0,0,595.324,178.29Z" fill="#221f1f" fill-rule="evenodd"/>
      <path id="Path_30286" data-name="Path 30286" d="M587.13,178.469h1.838v4.753h1.25v-4.753h1.854v-1H587.13Z" fill="#221f1f" fill-rule="evenodd"/>
      <path id="Path_30287" data-name="Path 30287" d="M604.4,181.609l-2.341-4.156h-1.531v5.769h1.235l-.046-4.357,2.461,4.357h1.387v-5.769h-1.212Z" fill="#221f1f" fill-rule="evenodd"/>
      <rect id="Rectangle_13634" data-name="Rectangle 13634" width="1.262" height="5.769" transform="translate(608.915 177.453)" fill="#221f1f"/>
      <path id="Path_30288" data-name="Path 30288" d="M611.574,178.29a3.458,3.458,0,0,0-.573,2.157,2.9,2.9,0,0,0,.655,2.044,2.646,2.646,0,0,0,2.03.731h2.029v-1h-1.982a2.231,2.231,0,0,1-.728-.089.866.866,0,0,1-.5-.467,2.739,2.739,0,0,1-.183-1.132,2.769,2.769,0,0,1,.388-1.671,1.221,1.221,0,0,1,1.022-.422h1.982v-.986h-2A2.565,2.565,0,0,0,611.574,178.29Z" fill="#221f1f" fill-rule="evenodd"/>
      <path id="Path_30289" data-name="Path 30289" d="M620.02,179.79h-2.213v-2.337h-1.2v5.769h1.2v-2.415h2.213v2.415h1.2v-5.769h-1.2Z" fill="#221f1f" fill-rule="evenodd"/>
      <rect id="Rectangle_13635" data-name="Rectangle 13635" width="2.685" height="1.006" transform="translate(622.919 180.557)" fill="#221f1f"/>
      <path id="Path_30290" data-name="Path 30290" d="M631.745,177.467H626.8v1h1.839v4.753h1.25v-4.753h1.853Z" fill="#221f1f" fill-rule="evenodd"/>
      <path id="Path_30291" data-name="Path 30291" d="M633.211,177.453l-2.412,5.769h1.278l.495-1.38h2.5l.526,1.38h1.34l-2.45-5.769Zm-.251,3.37.85-2.207.869,2.207Z" fill="#221f1f" fill-rule="evenodd"/>
      <path id="Path_30292" data-name="Path 30292" d="M641.217,181.609l-2.342-4.156h-1.53v5.769h1.235l-.047-4.357,2.461,4.357h1.387v-5.769H641.17Z" fill="#221f1f" fill-rule="evenodd"/>
      <path id="Path_30293" data-name="Path 30293" d="M663.611,177.453v2.337H661.4v-2.337h-1.2v5.769h1.2v-2.415h2.213v2.415h1.2v-5.769Z" fill="#221f1f" fill-rule="evenodd"/>
      <path id="Path_30294" data-name="Path 30294" d="M645.99,178.469h1.838v4.753h1.249v-4.753h1.855v-1H645.99Z" fill="#221f1f" fill-rule="evenodd"/>
      <path id="Path_30295" data-name="Path 30295" d="M657.86,181.609l-2.341-4.156h-1.53v5.769h1.235l-.047-4.357,2.461,4.357h1.387v-5.769h-1.211Z" fill="#221f1f" fill-rule="evenodd"/>
      <rect id="Rectangle_13636" data-name="Rectangle 13636" width="1.262" height="5.769" transform="translate(651.524 177.453)" fill="#221f1f"/>
      <path id="Path_30296" data-name="Path 30296" d="M611.471,175.79h-1.348l-1.023,1.3.758-.018Z" fill="#221f1f" fill-rule="evenodd"/>
      <rect id="Rectangle_13637" data-name="Rectangle 13637" width="1.195" height="1.094" transform="translate(597.001 183.775)" fill="#221f1f"/>
      <path id="Path_30297" data-name="Path 30297" d="M595.974,177.092h1.053l.554-.574.482.574h1.16l-1.16-1.238h-.946Z" fill="#221f1f" fill-rule="evenodd"/>
      <path id="Path_30298" data-name="Path 30298" d="M573.284,177.092h1.053l.554-.574.482.574h1.16l-1.16-1.238h-.946Z" fill="#221f1f" fill-rule="evenodd"/>
      <rect id="Rectangle_13638" data-name="Rectangle 13638" width="1.195" height="1.094" transform="translate(574.311 183.775)" fill="#221f1f"/>
      <rect id="Rectangle_13639" data-name="Rectangle 13639" width="1.196" height="1.094" transform="translate(633.27 183.775)" fill="#221f1f"/>
      <path id="Path_30299" data-name="Path 30299" d="M632.244,177.092H633.3l.554-.574.482.574h1.16l-1.16-1.238h-.946Z" fill="#221f1f" fill-rule="evenodd"/>
      <path id="Path_30300" data-name="Path 30300" d="M650.451,175.79l1.613,1.285.758.018-1.024-1.3Z" fill="#221f1f" fill-rule="evenodd"/>
    </g>
  </g>
</svg>
